<svg width="348" height="55" viewBox="0 0 348 55" fill="none" xmlns="http://www.w3.org/2000/svg">
<g opacity="0.89" clip-path="url(#clip0_1_44)">
<path d="M184.606 45.2294L182.333 43.9856C180.79 43.1312 179.495 41.8927 178.574 40.3908C177.51 38.6271 176.802 36.6733 176.489 34.6392H182.492C182.663 35.5654 183.008 36.4511 183.51 37.249C183.932 37.9282 184.52 38.4897 185.22 38.881C185.918 39.2603 186.704 39.4535 187.499 39.4418C188.466 39.4708 189.422 39.2425 190.27 38.7804C191.038 38.3301 191.648 37.6547 192.016 36.8464C192.442 35.8877 192.647 34.846 192.615 33.798V25.4078C192.644 24.3531 192.439 23.305 192.016 22.3379C191.65 21.528 191.04 20.8519 190.27 20.4039C189.423 19.9385 188.466 19.7099 187.499 19.7425C186.712 19.7307 185.935 19.9266 185.248 20.3104C184.556 20.7138 183.97 21.2757 183.538 21.9497C183.035 22.7448 182.681 23.6241 182.492 24.5451H176.489C176.79 22.511 177.491 20.5563 178.553 18.7935C179.473 17.2864 180.774 16.0468 182.326 15.1987C183.917 14.3539 185.697 13.9259 187.499 13.9549C189.584 13.8945 191.651 14.3568 193.51 15.2993C195.152 16.181 196.48 17.5471 197.312 19.2104C198.236 21.1386 198.686 23.2579 198.625 25.3935V33.798C198.685 35.9335 198.235 38.0527 197.312 39.981C196.479 41.6401 195.151 43.0014 193.51 43.8778C191.649 44.8147 189.583 45.2743 187.499 45.215L184.606 45.2294ZM183.531 27.0255H195.472V32.3745H183.531V27.0255Z" fill="#201600"/>
<path d="M204.332 23.0497H210.105V44.9131H204.332V23.0497ZM207.291 40.4052H214.347C215.063 40.4489 215.771 40.2317 216.338 39.7941C216.579 39.5804 216.768 39.3159 216.893 39.0199C217.018 38.7238 217.075 38.4038 217.06 38.083V38.0039C217.074 37.6896 217.017 37.3762 216.892 37.0872C216.767 36.7983 216.578 36.5414 216.338 36.336C215.765 35.9123 215.06 35.7036 214.347 35.7464H207.291V31.2386H214.347C214.953 31.2782 215.554 31.1025 216.043 30.7425C216.241 30.5684 216.397 30.3518 216.5 30.109C216.602 29.8663 216.648 29.6036 216.634 29.3405C216.647 29.0872 216.6 28.8344 216.497 28.6022C216.394 28.3701 216.239 28.165 216.043 28.0033C215.56 27.6669 214.978 27.5022 214.39 27.536H207.291V23.0497H215.595C217.76 23.0497 219.47 23.517 220.646 24.4876C221.242 24.9672 221.716 25.5809 222.028 26.2782C222.34 26.9756 222.482 27.7368 222.442 28.4994C222.488 29.6916 222.107 30.8611 221.367 31.7994C220.586 32.6984 219.504 33.2857 218.323 33.453C219.642 33.6911 220.829 34.3989 221.663 35.4445C222.479 36.5499 222.896 37.8978 222.846 39.2693V39.3268C222.886 40.1194 222.732 40.9098 222.399 41.6307C222.067 42.3517 221.564 42.9819 220.934 43.468C219.66 44.4266 217.851 44.9059 215.509 44.9059H207.291V40.4052Z" fill="#201600"/>
<path d="M228.416 43.5542C227.255 42.4327 226.67 40.7431 226.67 38.464C226.67 36.3072 227.327 34.6823 228.626 33.5967C229.924 32.5111 231.887 31.9791 234.492 31.9791H239.989L240.285 36.3791H234.513C233.819 36.328 233.128 36.5103 232.551 36.8967C232.324 37.0874 232.147 37.3289 232.033 37.6014C231.918 37.874 231.871 38.1696 231.894 38.464C231.874 38.7783 231.94 39.092 232.085 39.3718C232.23 39.6516 232.448 39.887 232.717 40.0529C233.486 40.4481 234.349 40.627 235.213 40.5706C236.389 40.6343 237.566 40.4556 238.669 40.0457C239.005 39.9203 239.293 39.6951 239.496 39.4005C239.699 39.106 239.806 38.7564 239.802 38.3993L240.242 41.5843C240.158 42.3677 239.766 43.0862 239.153 43.583C238.448 44.1622 237.626 44.5817 236.743 44.8124C235.75 45.0917 234.723 45.232 233.691 45.2294C231.339 45.2294 229.58 44.671 228.416 43.5542ZM239.802 31.0516C239.828 30.61 239.749 30.1685 239.572 29.7626C239.396 29.3568 239.126 28.9979 238.785 28.715C237.949 28.113 236.928 27.8206 235.899 27.8882C235.074 27.8909 234.255 28.0269 233.474 28.2908C232.694 28.5363 231.962 28.9132 231.31 29.4052L227.702 25.8895C228.648 24.843 229.837 24.0432 231.165 23.5601C232.692 22.9918 234.312 22.7115 235.942 22.7333C237.628 22.6857 239.304 23.0123 240.848 23.6895C242.142 24.279 243.222 25.2503 243.943 26.4719C244.688 27.8117 245.057 29.3266 245.011 30.8575V44.913H239.751L239.802 31.0516Z" fill="#201600"/>
<path d="M251.195 14.2784H256.967V44.9059H251.195V14.2784ZM253.705 26.9177H264.593V32.4752H253.705V26.9177ZM259.73 31.4255L264.997 29.2111L275.589 44.9059H268.338L259.73 31.4255ZM259.73 28.0967L267.616 14.2784H274.297L264.045 31.8641L259.73 28.0967Z" fill="#D76446"/>
<path d="M281.83 44.1078C280.439 43.3874 279.308 42.251 278.598 40.8581C277.816 39.2541 277.435 37.4856 277.487 35.7032V32.1444C277.435 30.3851 277.817 28.64 278.598 27.0614C279.311 25.676 280.441 24.5473 281.83 23.8333C283.441 23.1082 285.189 22.7332 286.956 22.7332C288.724 22.7332 290.472 23.1082 292.083 23.8333C293.473 24.5453 294.604 25.6745 295.315 27.0614C296.096 28.64 296.478 30.3851 296.426 32.1444V35.7392C296.477 37.5077 296.096 39.262 295.315 40.8509C294.602 42.2364 293.472 43.3651 292.083 44.0791C290.475 44.8161 288.726 45.1977 286.956 45.1977C285.187 45.1977 283.438 44.8161 281.83 44.0791V44.1078ZM289.666 38.6438C290.35 37.8466 290.697 36.8153 290.632 35.768V32.1732C290.67 31.654 290.603 31.1326 290.437 30.639C290.271 30.1455 290.009 29.6895 289.666 29.2974C289.307 28.9489 288.879 28.6788 288.409 28.5042C287.94 28.3297 287.439 28.2546 286.938 28.2836C286.442 28.2546 285.946 28.3298 285.481 28.5045C285.016 28.6791 284.593 28.9493 284.24 29.2974C283.898 29.6901 283.637 30.1463 283.472 30.6398C283.307 31.1334 283.242 31.6545 283.28 32.1732V35.768C283.215 36.813 283.556 37.843 284.233 38.6438C284.585 38.9959 285.008 39.2692 285.475 39.4452C285.942 39.6213 286.44 39.6961 286.938 39.6647C287.445 39.6979 287.953 39.6242 288.429 39.4482C288.906 39.2723 289.339 38.9982 289.702 38.6438H289.666Z" fill="#D76446"/>
<path d="M317.985 23.0497H323.187V44.9131H317.927V30.534L318.137 31.8785L314.161 40.6641H310.741L306.766 31.8785L306.975 30.534V44.9131H301.715V23.0497H306.91L312.451 34.9268L317.985 23.0497Z" fill="#D76446"/>
<path d="M342.466 44.8915V30.419L342.971 30.9654L334.118 44.8915H329.104V23.0497H334.645V37.8745L334.14 37.3281L343.036 23.0497H348.007V44.8915H342.466Z" fill="#D76446"/>
<path d="M84.1933 10.9496C86.495 10.9496 88.8038 10.9496 91.1054 10.9496C91.3883 10.9669 91.6716 10.9253 91.9374 10.8275C92.2033 10.7298 92.4457 10.5779 92.6495 10.3817C96.1632 7.30455 99.7058 4.25619 103.227 1.17906C103.943 0.537999 104.884 0.202442 105.846 0.244419C116.712 0.426554 127.578 0.587119 138.444 0.726117C139.116 0.705622 139.783 0.855878 140.381 1.16275C140.98 1.46962 141.49 1.92303 141.864 2.48037C144.122 5.65096 146.496 8.74247 148.733 11.9346C150.14 13.9549 150.176 16.3418 150.01 18.6712C149.99 21.1687 149.284 23.6131 147.968 25.7385C147.559 26.4407 146.974 27.0255 146.271 27.4361C145.568 27.8468 144.771 28.0694 143.956 28.0823C143.141 28.0823 142.946 27.8523 142.91 27.0614C142.862 25.1044 142.173 23.2169 140.947 21.6874C139.721 20.1579 138.026 19.0707 136.121 18.5921C129.995 17.1542 125.017 20.6268 124.317 26.8242C124.23 27.5431 124.071 27.7804 123.328 27.7588C114.576 27.5503 105.817 27.3706 97.0651 27.1693C96.0359 27.0794 95.0019 27.0578 93.9698 27.1046C92.9381 27.2052 92.3753 26.5366 92.5268 25.4797C92.8195 23.3465 92.2943 21.1816 91.0559 19.4172C89.8175 17.6528 87.957 16.4186 85.8456 15.9608C83.907 15.4418 81.8536 15.5445 79.9769 16.2543C78.1002 16.9641 76.4956 18.2449 75.3909 19.915C74.3212 21.5637 73.8478 23.5267 74.0489 25.4797C74.1499 26.5941 73.6737 26.7595 72.7429 26.6732C70.5784 26.4647 69.7198 25.5876 69.9651 23.3876C70.1166 22.0431 70.1166 20.6915 71.336 19.5412C72.0142 18.9085 71.9709 17.4921 72.2234 16.4137C72.4541 14.9042 73.087 13.484 74.0561 12.3013C74.4991 11.7972 75.0499 11.3986 75.668 11.1348C76.2861 10.871 76.9558 10.7488 77.6276 10.7771C79.7921 10.8131 82.0072 10.7771 84.1933 10.7771V10.9496ZM134.093 11.7405C131.828 8.52678 129.699 5.50716 127.6 2.48037C127.48 2.33192 127.322 2.21826 127.143 2.15123C126.964 2.08421 126.77 2.06628 126.582 2.09932C123.48 2.09932 120.37 2.04899 117.26 1.98429C116.596 1.98429 116.431 2.21436 116.402 2.83266C116.293 5.2771 116.178 7.72154 115.954 10.1516C115.846 11.3091 116.265 11.5895 117.332 11.5464C120.861 11.5464 124.396 11.5464 127.924 11.7189C129.88 11.8124 131.871 11.7405 134.093 11.7405ZM95.081 11.0719C101.502 11.1869 107.585 11.2804 113.674 11.4026C114.309 11.4026 114.432 11.1222 114.454 10.583C114.583 8.06664 114.713 5.5503 114.901 3.04115C114.959 2.24311 114.749 1.9771 113.92 1.99148C111.279 2.04181 108.631 1.99148 105.983 1.99148C105.561 1.97291 105.149 2.12007 104.836 2.40128C101.683 5.24115 98.5009 8.04507 95.081 11.0719ZM129.923 2.55227C131.82 5.39214 133.826 8.34703 135.789 11.3307C135.917 11.5165 136.093 11.6637 136.299 11.7563C136.505 11.8488 136.733 11.8832 136.958 11.8555L146.041 12.1C146.258 12.1 146.525 12.2006 146.64 11.9274C146.756 11.6542 146.51 11.5248 146.381 11.3451L140.666 3.19932C140.576 3.01028 140.435 2.84944 140.26 2.73414C140.084 2.61885 139.88 2.55347 139.67 2.54507C136.424 2.55945 133.17 2.55227 129.923 2.55227Z" fill="#201600"/>
<path d="M113.501 38.4928C116.25 40.9229 116.979 44.0288 116.914 47.4366C116.914 47.7961 116.827 48.0477 116.409 48.0118C116.322 48.0161 116.236 48.002 116.155 47.9704C116.074 47.9388 116.001 47.8906 115.94 47.8287C115.879 47.7669 115.832 47.6929 115.803 47.6116C115.773 47.5304 115.76 47.4438 115.767 47.3575C115.723 46.3681 115.58 45.3855 115.341 44.4242C114.934 42.7008 113.958 41.1632 112.571 40.0579C111.183 38.9525 109.463 38.3432 107.686 38.3275C106.106 38.3275 104.526 38.4065 102.96 38.3275C98.0608 37.9752 95.4561 40.6928 94.078 44.6686C93.8255 45.3876 93.6307 46.1497 92.7649 46.3941C92.4258 46.4948 92.0795 46.883 91.7187 46.4948C91.3579 46.1065 91.661 45.8477 91.7692 45.5242C92.5355 42.9951 93.8902 40.682 95.7231 38.7732C95.7903 38.6833 95.8483 38.587 95.8963 38.4856C95.508 38.3009 95.0704 38.2454 94.648 38.3275C79.8282 38.2747 65.0059 38.2316 50.1812 38.198C49.2144 38.198 48.7382 38.0327 48.9186 36.9686C48.9763 36.3973 48.9763 35.8217 48.9186 35.2503C48.8536 34.1503 48.731 33.0575 50.4554 33.3523C51.0326 33.4529 50.9821 32.9281 50.9749 32.5543C50.9316 31.066 50.8522 29.5706 50.8378 28.0824C50.7296 19.2033 50.6574 10.3242 50.5059 1.48105C50.5059 0.323531 50.8594 2.2836e-06 51.9489 0.122225C52.4395 0.179741 52.9518 0.0647082 53.4424 0.122225C53.9331 0.179741 54.5464 -0.273195 54.6401 0.532034C54.7123 1.1719 54.9071 1.96994 53.9908 2.25752C52.3097 2.83987 52.0066 4.04053 52.0499 5.72288C52.187 10.6549 52.1365 15.5941 52.1221 20.5333C52.1221 21.3098 52.2015 21.8418 53.1683 21.6118C53.3758 21.5722 53.5904 21.5932 53.7863 21.6723C53.9821 21.7514 54.1508 21.8852 54.2722 22.0575C57.6633 25.4869 61.0905 28.902 64.4527 32.3601C64.7028 32.6392 65.0116 32.86 65.357 33.0066C65.7024 33.1532 66.0761 33.2222 66.4513 33.2085C81.6031 33.2876 96.7549 33.4242 111.95 33.4889C117.345 33.6027 122.73 34.0011 128.083 34.6824C132.845 35.2 137.614 35.6314 142.376 36.1203C147.138 36.6092 151.893 37.1556 156.648 37.6588C159.851 37.9991 163.052 38.3179 166.251 38.615C166.929 38.6726 167.16 38.766 167.016 39.5569C166.604 41.7137 166.294 43.9209 166.006 46.1137C165.919 46.7464 166.085 47.7745 165.551 47.8824C164.679 48.0559 163.773 47.8914 163.019 47.4222C161.941 46.7565 160.898 46.0366 159.894 45.2654C159.461 44.932 158.958 44.6979 158.423 44.5799C157.888 44.4618 157.334 44.4627 156.799 44.5824C151.07 45.3588 145.342 46.0922 139.613 46.8543L123.018 49.0758C121.726 49.2484 120.428 49.349 119.151 49.6007C117.989 49.8379 118.097 49.0111 117.917 48.3641C117.65 47.4294 118.407 47.4726 118.905 47.3935C121.546 46.9765 124.194 46.5811 126.842 46.236C127.506 46.1497 127.78 45.9556 127.765 45.2582C127.765 43.5399 127.765 41.8144 127.765 40.0961C127.765 39.7438 127.903 39.3124 127.275 39.2693C122.765 38.9458 118.299 38.1118 113.754 38.3275C113.703 38.3562 113.653 38.4137 113.501 38.4928ZM154.548 42.181C153.329 41.8352 152.07 41.6515 150.803 41.6346C143.884 40.9157 136.95 40.2686 130.024 39.5641C129.447 39.5065 129.302 39.6719 129.302 40.2183C129.302 41.5915 129.194 42.9647 129.158 44.3379C129.122 45.9699 129.158 45.9699 130.767 45.7327L154.548 42.181ZM63.0963 33.3164L63.4715 32.5974C61.5306 30.8072 59.5681 29.0386 57.6561 27.2196C56.3213 25.9471 55.0442 24.6242 53.7743 23.3013C53.6106 23.1128 53.3928 22.9787 53.1504 22.917C52.9079 22.8553 52.6523 22.869 52.4179 22.9562C51.9128 23.1288 52.1509 23.6177 52.1581 23.9556C52.2159 26.7811 52.3097 29.6137 52.3746 32.4392C52.3746 32.9641 52.454 33.3163 53.0961 33.3092C56.4439 33.3092 59.7701 33.3164 63.0963 33.3164Z" fill="#201600"/>
<path d="M28.5503 9.87125C31.2559 8.07386 34.2647 7.64968 37.4393 7.8438C38.8823 7.93727 40.3254 7.88694 41.8117 7.8438C42.4827 7.8438 42.627 8.03073 42.6053 8.68498C42.3456 16.1405 42.259 23.5961 41.7973 31.0373C41.5736 34.7039 41.4509 38.3706 41.285 42.0373C41.1912 44.0216 41.1335 43.9928 39.1926 44.1438C36.3065 44.3595 33.4205 44.2804 30.5344 44.3307C30.2177 44.3689 29.8972 44.3014 29.6231 44.1388C29.3489 43.9762 29.1366 43.7276 29.0193 43.432C27.8527 40.9702 26.1523 38.797 24.0408 37.0693C22.4356 35.6889 20.389 34.9242 18.2687 34.9124C17.2947 34.9124 16.9844 34.5673 16.97 33.7046C16.9051 29.6209 16.6886 25.5301 17.7925 21.5183C17.8472 21.2576 17.8834 20.9933 17.9007 20.7275C18.7959 18.8149 20.0983 17.1196 21.7176 15.7595C22.7205 14.6882 23.9542 13.8255 24.7335 12.5386C26.0322 11.683 27.1072 10.5183 28.5503 9.87125ZM40.8809 16.0902C40.8809 14.2137 40.8809 12.3373 40.8809 10.468C40.8809 9.10916 40.4408 8.71373 39.0844 8.70654C37.7279 8.69935 36.3138 8.70654 34.9357 8.70654C33.0118 8.6913 31.1273 9.24964 29.5243 10.3098C26.239 12.5055 23.2951 15.1701 20.7868 18.2183C19.6685 19.4909 18.6656 20.8065 18.4058 22.568C18.1749 24.1353 18.6151 24.7248 20.1879 24.6673C24.5531 24.502 28.9255 24.3366 33.2906 24.1425C35.1305 24.0634 36.9703 23.9771 38.803 23.8046C40.3614 23.6464 40.8665 23.0353 40.8881 21.4896C40.9026 19.685 40.8809 17.8732 40.8809 16.0902Z" fill="#201600"/>
<path d="M21.7247 15.7667C20.1039 17.131 18.8013 18.8313 17.908 20.749C17.0999 21.7627 17.0854 23.0281 16.9195 24.2C16.4505 27.5072 16.6309 30.8431 16.7102 34.1719C16.7102 34.7902 16.6309 34.8909 16.0392 34.9771C13.5139 35.3294 11.2195 36.1922 9.61056 38.3131C9.50023 38.444 9.35496 38.5412 9.19153 38.5934C9.0281 38.6456 8.85319 38.6506 8.68702 38.6078L1.20493 38.1046C2.86354 36.8018 3.97701 34.9312 4.32908 32.8562C4.52503 32.1529 4.63644 31.4289 4.66098 30.6993C4.62832 30.2694 4.71794 29.839 4.91958 29.4575C5.12121 29.076 5.4267 28.7589 5.80097 28.5425C7.64753 27.177 9.57507 25.9237 11.5731 24.7895C13.7376 23.5601 15.2744 21.6046 16.9339 19.8072C20.1446 16.3203 23.0956 12.5745 26.9413 9.74183C29.1771 8.04276 31.8875 7.07802 34.6976 6.98105C38.8463 6.8085 42.9877 6.78692 47.1364 6.67908C48.1033 6.67908 48.3125 7.00981 48.3053 7.85817C48.1802 19.6442 48.0672 31.4279 47.9662 43.2091C47.9662 44.5895 47.5838 44.9993 46.2057 45.0497C44.8276 45.1 43.5144 45.1144 42.1724 45.0497C41.9131 44.9977 41.6437 45.0422 41.4151 45.1746C41.1864 45.3071 41.0144 45.5184 40.9314 45.7686C40.5057 46.9621 39.6616 47.2065 38.4422 47.2065C35.0367 47.1203 31.6383 47.2065 28.1462 47.2065C29.077 44.9346 29.4738 44.6902 31.5157 44.6542C34.4706 44.7345 37.4277 44.6673 40.3759 44.4529C41.2056 44.3595 41.5159 44.0431 41.5519 43.2595C41.7034 40.3837 41.8838 37.4647 42.0281 34.5601C42.1364 32.4967 42.1363 30.4261 42.2879 28.3699C42.7785 21.8203 42.5693 15.249 42.9661 8.69935C43.0238 7.75033 42.7641 7.43398 41.7756 7.46993C39.1998 7.55621 36.6312 7.51306 34.0554 7.5562C32.1578 7.5562 30.5272 8.44771 28.9182 9.3464C28.8194 9.4041 28.7359 9.4844 28.6744 9.58066C28.6129 9.67693 28.5753 9.78639 28.5647 9.9C27.1217 10.5471 26.0466 11.7118 24.7551 12.5745C23.6223 13.5163 22.2875 14.2784 21.7247 15.7667Z" fill="#201600"/>
<path d="M70.1238 46.3294C64.7558 46.3294 59.3805 46.3294 54.0052 46.3294C53.125 46.3294 52.8003 46.1137 52.8436 45.1863C52.9266 43.5817 52.9266 41.9739 52.8436 40.3693C52.7931 39.3771 53.1394 39.1542 54.0702 39.1614C61.711 39.2117 69.3518 39.2189 76.9854 39.2405C80.059 39.2405 83.1327 39.2837 86.1991 39.2405C87.1082 39.2405 87.4906 39.3987 87.4329 40.4124C87.3463 42.0553 87.3463 43.7016 87.4329 45.3444C87.4762 46.2144 87.2092 46.4229 86.3579 46.4157C80.9465 46.3797 75.5352 46.4157 70.1166 46.4157L70.1238 46.3294Z" fill="#201600"/>
<path d="M27.7927 46.3654C27.2643 44.8191 26.6254 43.3126 25.8807 41.8575C23.5574 37.7595 20.6425 36.2065 16.2846 36.7673C12.6193 37.2346 9.42298 40.2039 8.34792 44.1366C8.1495 44.7135 8.04003 45.3171 8.02324 45.9268C8.08818 47.3 7.30173 47.3 6.34933 47.0771C5.7144 46.9333 5.07226 46.8327 4.43733 46.6817C3.63583 46.5017 2.8828 46.1513 2.2297 45.6545C1.5766 45.1578 1.03882 44.5264 0.653138 43.8035C0.267458 43.0806 0.0429637 42.2833 -0.00500455 41.466C-0.0529728 40.6487 0.0767203 39.8307 0.375205 39.068C0.395872 38.9579 0.438393 38.853 0.500272 38.7595C0.562152 38.666 0.64214 38.5858 0.735554 38.5235C0.828969 38.4612 0.933931 38.4182 1.04427 38.3969C1.15461 38.3755 1.2681 38.3764 1.37811 38.3993C3.65809 38.6222 5.95249 38.7588 8.23969 39.0176C8.60026 39.112 8.98124 39.0936 9.33099 38.965C9.68074 38.8364 9.98236 38.6038 10.195 38.2987C11.5226 36.5013 13.4779 35.7967 15.6136 35.4229C21.0321 34.4882 24.5747 37.2418 27.4392 41.347C27.7855 41.8503 28.0813 42.3824 28.3988 42.9072C29.4305 44.6255 29.3872 44.8987 27.7927 46.3654Z" fill="#201600"/>
<path d="M17.1504 54.9137C12.8213 55.4529 8.8746 51.4915 8.88182 47.149C8.94228 44.9699 9.861 42.9021 11.4393 41.3926C13.0177 39.8831 15.1288 39.0532 17.3163 39.0824C19.463 39.0263 21.5442 39.8217 23.1028 41.2938C24.6613 42.7659 25.5696 44.7943 25.6281 46.9334C25.6714 51.3837 21.5299 55.4817 17.1504 54.9137ZM17.1504 52.8935C18.7543 52.938 20.3105 52.3469 21.4777 51.2499C22.6449 50.1528 23.328 48.6393 23.377 47.0412C23.3648 46.2699 23.1996 45.5086 22.8907 44.8012C22.5819 44.0938 22.1356 43.4544 21.5775 42.9197C21.0195 42.385 20.3608 41.9657 19.6393 41.6859C18.9179 41.4061 18.148 41.2714 17.374 41.2896C15.768 41.2605 14.2153 41.8642 13.0534 42.9695C11.8916 44.0747 11.2144 45.5922 11.169 47.1922C11.2323 48.7251 11.8878 50.1743 12.9985 51.2368C14.1092 52.2993 15.589 52.8929 17.1287 52.8935H17.1504Z" fill="#201600"/>
<path d="M104.995 39.0536C109.1 39.0536 112.621 41.9294 113.162 45.7111C113.489 47.6781 113.057 49.6953 111.955 51.359C110.853 53.0227 109.16 54.2102 107.217 54.6837C102.419 55.8196 98.1185 53.9647 96.7477 48.8817C95.5788 44.568 98.739 40.017 103.393 39.1543C103.924 39.0845 104.459 39.0509 104.995 39.0536ZM104.836 52.8719C106.393 52.8786 107.89 52.2684 108.996 51.1756C110.102 50.0828 110.727 48.5969 110.734 47.0448C110.741 45.4927 110.129 44.0015 109.032 42.8992C107.935 41.797 106.444 41.174 104.886 41.1673C103.3 41.1747 101.78 41.8014 100.652 42.9131C99.5244 44.0247 98.879 45.5326 98.8545 47.1131C98.8528 47.8894 99.0089 48.658 99.3133 49.3726C99.6178 50.0872 100.064 50.733 100.626 51.2711C101.187 51.8091 101.852 52.2284 102.581 52.5035C103.309 52.7786 104.086 52.9039 104.865 52.8719H104.836Z" fill="#201600"/>
<path d="M133.999 20.0301C134.951 19.9969 135.898 20.1612 136.782 20.5123C137.666 20.8634 138.468 21.3938 139.135 22.0698C139.803 22.7457 140.322 23.5526 140.66 24.4391C140.998 25.3256 141.148 26.2725 141.099 27.2196C141.099 31.2673 137.398 34.5601 132.968 34.517C131.129 34.5005 129.369 33.7703 128.062 32.4814C126.756 31.1926 126.005 29.4468 125.969 27.615C126.031 25.5504 126.911 23.5941 128.415 22.173C129.919 20.752 131.927 19.9817 133.999 20.0301ZM133.235 32.5039C134.722 32.5545 136.169 32.0166 137.26 31.0077C138.351 29.9988 138.997 28.6008 139.057 27.1189C139.065 26.4312 138.934 25.7488 138.672 25.1125C138.409 24.4763 138.021 23.8991 137.531 23.4155C137.04 22.9318 136.456 22.5515 135.815 22.2972C135.174 22.0429 134.487 21.9198 133.797 21.9353C132.331 21.9495 130.925 22.5192 129.865 23.5287C128.805 24.5381 128.171 25.9118 128.09 27.3706C128.079 28.046 128.205 28.7168 128.46 29.3427C128.715 29.9687 129.094 30.5372 129.574 31.0142C130.054 31.4912 130.625 31.867 131.254 32.1192C131.883 32.3715 132.557 32.495 133.235 32.4823V32.5039Z" fill="#201600"/>
<path d="M82.8008 32.3745C78.8685 32.1804 75.7011 29.7072 75.6722 25.185C75.6722 21.2739 79.3303 17.7941 83.5079 17.7582C87.4834 17.7222 90.9467 20.9288 90.7735 24.7536C90.5643 29.1608 87.5556 32.1516 82.8008 32.3745ZM82.9667 30.3686C83.7149 30.381 84.458 30.2459 85.1536 29.9711C85.8491 29.6964 86.4833 29.2873 87.0197 28.7676C87.5561 28.2478 87.9841 27.6275 88.2791 26.9423C88.5742 26.2572 88.7304 25.5207 88.7388 24.7752C88.7249 24.0951 88.5756 23.4245 88.2997 22.8024C88.0237 22.1802 87.6266 21.6188 87.1313 21.1507C86.636 20.6825 86.0524 20.317 85.4143 20.0753C84.7762 19.8336 84.0964 19.7205 83.4141 19.7425C81.9271 19.7534 80.5029 20.3415 79.444 21.3818C78.3851 22.4222 77.7749 23.8329 77.743 25.3144C77.7397 25.9919 77.8737 26.6631 78.137 27.2877C78.4002 27.9123 78.7874 28.4776 79.2752 28.9495C79.7629 29.4215 80.3413 29.7905 80.9757 30.0343C81.61 30.2782 82.2872 30.3919 82.9667 30.3686Z" fill="#201600"/>
<path d="M4.25692 29.8869C4.13426 32.9425 3.57869 35.5307 1.09669 37.5797C0.909097 34.4091 1.76049 31.9719 4.25692 29.8869Z" fill="#201600"/>
<path d="M21.4722 46.9836C21.4533 48.0835 21.002 49.132 20.2154 49.9037C19.4288 50.6754 18.3697 51.1087 17.2658 51.1105C16.1824 51.1321 15.1335 50.7305 14.3434 49.9916C13.5533 49.2526 13.0846 48.235 13.0378 47.1562C13.0813 46.0619 13.541 45.0251 14.3235 44.2561C15.106 43.4871 16.1527 43.0434 17.2514 43.015C18.3354 42.9972 19.3835 43.4022 20.1721 44.1437C20.9606 44.8851 21.4272 45.9042 21.4722 46.9836Z" fill="#201600"/>
<path d="M104.893 51.0242C104.359 51.0625 103.822 50.9889 103.318 50.8079C102.813 50.627 102.353 50.3428 101.965 49.9737C101.578 49.6046 101.272 49.1587 101.068 48.6648C100.864 48.1708 100.766 47.6398 100.781 47.1059C100.78 46.5635 100.887 46.0262 101.096 45.5254C101.305 45.0245 101.612 44.57 101.998 44.1881C102.385 43.8062 102.844 43.5046 103.348 43.3008C103.852 43.097 104.392 42.9949 104.937 43.0006C106.015 42.9833 107.056 43.393 107.831 44.1398C108.606 44.8866 109.052 45.9094 109.071 46.9836C109.079 47.527 108.976 48.0663 108.768 48.5684C108.559 49.0705 108.25 49.5248 107.858 49.9033C107.467 50.2818 107.002 50.5765 106.492 50.7692C105.982 50.962 105.438 51.0487 104.893 51.0242Z" fill="#201600"/>
<path d="M133.61 25.2569C133.866 25.2363 134.124 25.268 134.368 25.3503C134.612 25.4325 134.836 25.5634 135.027 25.7351C135.218 25.9067 135.372 26.1154 135.48 26.3485C135.587 26.5815 135.646 26.8339 135.652 27.0902C135.66 27.3656 135.613 27.6399 135.513 27.8966C135.412 28.1532 135.261 28.387 135.067 28.5838C134.874 28.7807 134.642 28.9364 134.387 29.0418C134.132 29.1471 133.857 29.1998 133.581 29.1968C133.315 29.2305 133.045 29.2073 132.789 29.1287C132.532 29.0502 132.296 28.918 132.095 28.741C131.894 28.5641 131.734 28.3464 131.624 28.1026C131.515 27.8589 131.458 27.5946 131.46 27.3275C131.482 26.773 131.718 26.2484 132.118 25.8628C132.519 25.4772 133.053 25.2602 133.61 25.2569Z" fill="#201600"/>
<path d="M81.1846 25.149C81.1473 24.6066 81.3278 24.0715 81.6863 23.6616C82.0449 23.2518 82.5522 23.0006 83.0966 22.9634C83.641 22.9262 84.178 23.1061 84.5893 23.4634C85.0006 23.8207 85.2527 24.3262 85.29 24.8686C85.3058 25.1469 85.2642 25.4254 85.1678 25.6871C85.0715 25.9487 84.9224 26.188 84.7298 26.39C84.5371 26.5921 84.305 26.7527 84.0477 26.862C83.7904 26.9713 83.5134 27.0269 83.2337 27.0255C81.9061 27.083 81.2784 26.5007 81.1846 25.149Z" fill="#201600"/>
</g>
<defs>
<clipPath id="clip0_1_44">
<rect width="348" height="55" fill="white"/>
</clipPath>
</defs>
</svg>
