<svg width="1440" height="154" viewBox="0 0 1440 154" fill="none" xmlns="http://www.w3.org/2000/svg">
<path d="M481.5 1.45157C481.5 1.98407 480.713 2.45001 479.813 2.45001C478.575 2.45001 478.125 3.18221 478.125 5.31219C478.125 6.9097 477.788 10.5706 477.338 13.3663L476.663 18.4916L474.638 16.6278C473.288 15.4963 472.5 13.5659 472.5 11.5691C472.5 8.5072 472.388 8.44063 469.125 8.44063C465.863 8.44063 465.75 8.57376 465.75 11.5025C465.75 13.9653 464.513 15.8291 459.45 21.2206C455.963 24.815 452.475 28.01 451.575 28.2097C450.338 28.476 450 30.14 450 35.465V42.3875H439.313H428.625V40.3906C428.625 39.0594 428.063 38.3938 426.938 38.3938C425.588 38.3938 425.25 37.5285 425.25 34.7328V31.0719H420.75H416.25V34.4C416.25 37.5285 416.025 37.7281 413.438 37.7281C410.963 37.7281 410.625 37.9944 410.625 40.0578V42.3875H403.875H397.125V32.8691L397.013 23.4172L392.288 26.4125L387.563 29.4078L391.275 29.6075L394.875 29.8072V36.1306V42.3875H389.925C385.538 42.3875 384.863 42.1878 384.525 40.8566C384.3 39.8581 383.513 39.4588 382.275 39.5919C380.475 39.725 380.25 39.1925 380.25 35.2653V30.7391H376.088H371.813L371.25 34.7328C370.688 38.4603 370.463 38.7266 367.763 38.9263C365.288 39.1259 364.95 39.3922 365.4 40.79C365.738 42.0547 365.4 42.3875 363.488 42.3875C361.8 42.3875 361.125 42.7869 361.125 43.9184C361.125 45.1166 359.213 46.115 352.463 48.5778C337.95 53.7031 327.15 56.3656 320.738 56.3656C316.35 56.3656 315 56.0994 315 55.3672C315 54.5685 313.538 54.3688 308.25 54.3688C302.963 54.3688 301.5 54.5685 301.5 55.3672C301.5 56.0994 300.263 56.3656 297 56.3656H292.5V59.8934V63.3547L274.5 59.8934C259.425 57.0313 249.075 55.4338 223.088 52.0391C221.288 51.7728 220.5 51.0406 219.938 49.0438L219.15 46.3813H213.75C210.263 46.3813 203.85 45.4494 195.525 43.6522C183.825 41.1894 182.025 40.9897 173.25 41.1894C164.588 41.3891 163.688 41.5222 163.35 42.7869L163.013 44.1847L149.288 42.5872C103.95 37.3288 68.0625 33.5347 52.875 32.3366L35.4375 31.0053L18.3375 25.6803C8.8875 22.8181 1.0125 20.6881 0.5625 21.021C0.225 21.3538 6.075 23.5503 13.3875 25.8134C20.8125 28.1431 26.775 30.14 26.55 30.2066C26.325 30.3397 21.7125 30.14 16.2 29.7406C10.6875 29.4078 4.8375 29.075 3.0375 29.075H0L0.225 91.1113L0.5625 153.214H720H1439.44L1439.78 114.342L1440 75.4025L1437.53 76.8003C1436.06 77.5325 1432.58 78.3313 1429.65 78.531L1424.36 78.9969L1424.93 77.0666C1425.71 74.7369 1423.35 73.2059 1418.06 72.6069C1413 72.0744 1406.25 72.8066 1405.58 74.0047C1405.01 74.8035 1404.34 74.7369 1401.08 73.8716C1397.36 72.8066 1397.14 72.8066 1393.88 74.2044C1387.8 76.8669 1374.75 75.2694 1374.75 71.8747C1374.75 70.8763 1373.85 70.0775 1372.16 69.7447C1369.69 69.1456 1369.58 68.6797 1368.11 56.9647C1367.33 50.2419 1366.43 44.5841 1366.31 44.5175C1366.09 44.3844 1364.06 44.5841 1361.93 45.05C1357.43 45.9153 1357.54 45.5825 1358.89 53.3038C1359.45 56.2991 1360.46 58.7619 1361.25 59.0281C1362.15 59.361 1362.94 61.6241 1363.28 64.9522C1363.73 70.0775 1363.73 70.3438 1361.36 70.3438C1358.44 70.3438 1358.33 69.9444 1356.75 57.4306C1356.08 51.906 1355.51 47.3797 1355.29 47.3797C1355.18 47.3131 1353.26 47.3797 1351.01 47.5128L1346.85 47.8456L1347.41 53.2372C1347.75 56.2325 1348.43 58.9616 1348.99 59.361C1349.55 59.6938 1350 62.7556 1350 66.1503C1350 72.2075 1350 72.3406 1347.08 72.74C1344.26 73.1394 1336.05 72.8731 1326.6 71.9413C1322.44 71.5419 1322.21 71.6085 1321.54 73.5388C1321.09 75.0031 1320.08 75.6022 1318.28 75.8019C1315.91 76.0016 1315.69 76.401 1315.46 79.9953C1314.9 87.2506 1314.23 88.3156 1309.95 89.3806C1306.8 90.1794 1305.23 90.1794 1301.51 89.5803C1296.56 88.6485 1296.45 87.65 1300.5 84.1888C1302.64 82.4581 1302.64 82.3916 1300.39 80.7275C1298.25 79.0635 1297.46 78.9969 1288.01 78.9969C1279.24 78.9969 1278 78.8638 1277.89 77.7988C1277.89 77.1997 1277.21 70.6766 1276.43 63.3547C1275.75 56.0328 1275.53 49.9091 1275.98 49.8425C1277.1 49.5763 1277.1 42.1213 1276.09 37.1956L1275.41 33.6678L1269.34 33.8675C1266.08 34.0006 1263.38 34.2669 1263.38 34.5331C1263.38 34.866 1263.38 38.1941 1263.38 41.9881V48.8441L1266.75 49.2435L1270.13 49.6428V64.0203V78.3313H1262.36H1254.49L1253.93 75.4691C1253.59 73.9381 1252.46 67.5481 1251.56 61.3578C1250.21 52.3719 1250.21 49.9091 1251.34 49.3766C1252.35 48.9106 1252.58 46.5809 1252.35 41.1894L1251.9 33.7344H1245.26H1238.63V41.7219V49.7094H1241.89H1245.26L1245.38 64.0203L1245.49 78.3313H1234.13H1222.88V74.1378C1222.88 71.8747 1222.54 69.3453 1222.2 68.48C1221.64 67.415 1221.98 67.0156 1223.33 67.0156C1224.79 67.0156 1225.13 66.1503 1225.13 61.6906V56.3656H1220.63H1216.13V61.6241C1216.13 64.8191 1216.58 67.0156 1217.36 67.1488C1218.15 67.2819 1218.26 69.2788 1217.7 73.2059C1217.14 77.9319 1216.58 78.9969 1215.34 78.7306C1214.44 78.4644 1212.98 78.3313 1212.08 78.3313C1210.95 78.3313 1210.5 77.3994 1210.5 74.6703V71.0094H1206C1201.73 71.0094 1201.5 70.8763 1201.5 69.0125C1201.5 67.881 1202.06 67.0156 1202.63 67.0156C1203.3 67.0156 1203.75 64.8191 1203.75 61.6906V56.3656H1198.13H1192.5V59.6938C1192.5 63.2881 1191.94 63.6875 1189.58 61.8238C1188.45 61.025 1188 57.3641 1187.89 48.0453L1187.66 35.3985L1186.65 48.3781L1185.64 61.3578L1182.26 63.3547L1179 65.285L1178.33 63.155C1177.65 61.0916 1177.43 61.025 1172.14 61.025H1166.63V63.6875C1166.63 66.35 1166.63 66.35 1162.24 66.35C1158.19 66.35 1157.74 66.1503 1157.4 64.4863L1157.06 62.6891L1141.09 62.4894L1125 62.2897V60.0266C1125 57.6969 1125 57.6969 1119.94 57.6969H1114.88V61.2913C1114.88 65.0853 1113.86 65.6844 1107.34 65.6844C1104.98 65.6844 1104.75 65.3516 1104.75 62.3563V59.0281H1099.69H1094.63V63.6875V68.4135L1090.46 68.3469C1088.1 68.2803 1084.16 68.5466 1081.69 68.946C1074.94 70.0109 1069.88 69.8778 1069.88 68.6797C1069.88 67.2153 1067.96 67.4816 1067.29 69.0125C1066.84 70.1441 1065.71 70.3438 1060.99 70.3438C1056.04 70.3438 1055.25 70.1441 1055.25 69.0125C1055.25 68.2138 1054.46 67.6813 1053.45 67.6813C1052.1 67.6813 1051.76 68.1472 1052.21 69.4119C1052.78 71.4088 1052.44 71.4753 1043.78 71.8747L1037.25 72.141V63.5544C1037.25 58.296 1037.7 55.0344 1038.38 55.0344C1039.61 55.0344 1039.84 47.5128 1038.71 43.5191C1038.15 41.1894 1037.81 40.9897 1034.55 41.1894L1031.06 41.3891V56.6984V72.0078L1026.9 72.2075L1022.63 72.4072V64.8856C1022.63 60.4259 1023.08 57.0313 1023.86 56.5653C1024.65 56.0994 1024.76 53.57 1024.2 49.1103C1023.53 42.7869 1023.3 42.3875 1020.94 42.3875C1018.58 42.3875 1018.46 42.7203 1017.79 49.5097C1017.34 53.9694 1017.56 56.9647 1018.24 57.4306C1019.03 57.9631 1019.14 60.6256 1018.58 64.7525C1017.9 70.2106 1017.45 71.2091 1015.76 71.4753C1014.53 71.675 1013.63 72.2075 1013.63 72.74C1013.63 73.2059 1012.39 73.805 1010.81 74.0047C1009.24 74.2044 1006.76 74.4706 1005.3 74.6703L1002.49 75.0031L1002.15 66.6163C1001.93 60.3594 1002.15 58.0963 1003.28 57.8966C1004.18 57.6303 1004.63 55.7 1004.63 51.3069V45.05L1001.03 45.4494C999 45.6491 996.525 45.9819 995.625 46.1816C994.725 46.3813 992.925 46.5144 991.575 46.4478C988.763 46.3147 987.75 48.6444 987.75 55.7C987.75 58.0963 987.413 62.9553 986.963 66.4831L986.288 73.0063H982.463H978.75V60.0266C978.75 51.2403 978.413 47.0469 977.513 47.0469C975.375 47.0469 973.125 45.1831 973.125 43.4525C973.125 42.1878 972.563 41.7219 970.875 41.7219C969.188 41.7219 968.625 41.256 968.625 40.0578C968.625 38.7266 968.063 38.3938 965.813 38.3938C963.788 38.3938 963 38.061 963 37.0625C963 36.3303 962.213 35.7313 961.313 35.7313C960.413 35.7313 959.625 35.3319 959.625 34.7994C959.625 34.2669 958.838 33.6678 957.825 33.4681C956.588 33.2019 956.138 32.5363 956.475 31.4047C957.038 29.9403 956.7 29.7406 953.438 29.7406C950.738 29.7406 949.613 29.4078 949.163 28.4094C948.6 27.2113 947.588 27.0781 937.8 27.0781H927.113L922.5 30.6059C918.45 33.8009 918 34.5997 918 37.9278V41.7219H908.438C899.888 41.7219 898.763 41.5888 899.1 40.5238C899.438 39.4588 897.638 39.3922 877.838 39.1925C856.688 39.0594 856.125 39.0594 856.125 40.3906C856.125 41.5222 855.45 41.7219 850.725 41.7219C846.675 41.7219 845.1 42.0547 843.975 43.0531C843.188 43.8519 841.388 44.3844 839.363 44.3844C837 44.3844 835.988 44.7838 835.538 45.7822C834.975 46.9138 834.188 47.18 831.488 46.9138L828 46.5809V63.155V79.6625H818.438H808.875V76.3344C808.875 73.805 808.425 73.0063 807.188 73.0063C805.838 73.0063 805.5 72.141 805.5 69.3453C805.5 66.5497 805.163 65.6844 803.813 65.6844C802.575 65.6844 802.125 64.9522 802.125 62.8222C802.125 60.2928 801.45 59.6272 797.063 57.0313C794.025 55.2341 792 53.5034 792 52.5716C792 51.3735 791.325 51.0406 789.188 51.0406C787.05 51.0406 786.375 51.3735 786.375 52.5716C786.375 53.4369 784.688 55.101 782.438 56.3656C778.95 58.3625 778.5 58.9616 778.5 62.1566V65.6844H757.688H736.875V40.7234V15.7625H734.063C731.475 15.7625 731.25 15.4963 731.25 12.7672V9.77188H725.063H718.875V6.51033C718.875 4.64658 718.425 3.04907 717.975 2.84938C715.5 1.98407 698.738 1.65126 692.888 2.38345L686.475 3.18221L685.8 6.44376L685.013 9.77188H679.5H673.875V12.4344C673.875 14.8306 673.65 15.0969 671.063 15.0969H668.25V34.3335C668.25 51.2403 668.025 53.6366 666.45 53.9694C664.988 54.3022 664.763 55.3006 665.1 59.6938L665.438 65.0188H660.713C656.213 65.0188 655.875 64.8856 655.875 63.2881C655.875 62.1566 655.2 61.4244 653.625 61.2247C651.488 60.8919 651.375 60.2928 651.375 46.9803C651.375 33.9341 651.263 33.0688 649.35 33.0688C648.113 33.0688 646.313 32.4697 645.188 31.7375C642.6 30.0734 632.25 29.8072 630 31.4047C629.213 31.9372 627.188 32.4031 625.388 32.4031C622.35 32.4031 622.125 32.6028 622.125 35.0656V37.7281H615.375H608.625V42.7203C608.625 46.7141 608.288 47.7125 606.938 47.7125C605.813 47.7125 605.25 46.9803 605.25 45.3828V43.0531H594.563C585.788 43.0531 583.875 43.2528 583.875 44.0516C583.875 44.8503 582.075 45.05 574.313 45.05H564.75V48.3781C564.75 51.2403 564.413 51.7063 562.5 51.7063C560.363 51.7063 560.25 52.1722 560.25 58.0297V64.3531H554.625H549V56.0328V47.7125H544.5C542.025 47.7125 540 47.3797 540 47.0469C540 46.6475 537.525 46.3813 534.375 46.3813C531.338 46.3813 528.75 46.6475 528.75 47.0469C528.75 47.3797 526.725 47.7125 524.25 47.7125H519.75V50.7078V53.6366L513.338 53.8363C507.6 54.0359 506.813 54.2356 506.475 55.5003C506.138 56.6984 505.35 57.0313 502.763 57.0313H499.5V36.0641C499.5 24.0828 499.05 15.0969 498.488 15.0969C497.925 15.0969 497.138 12.9003 496.688 10.2378C495.9 5.8447 495.563 5.24564 491.513 2.91595C487.013 0.320007 481.5 -0.478745 481.5 1.45157ZM13.725 32.1369C14.625 32.4697 15.075 34.4 14.175 34.4C13.05 34.4 3.375 31.6044 3.375 31.2716C3.375 30.8722 12.15 31.6044 13.725 32.1369ZM26.8875 33.4681C30.0375 33.8675 30.375 34.1338 30.375 36.53C30.375 37.9944 30.0375 39.0594 29.5875 38.9263C29.025 38.7931 26.55 38.1275 23.9625 37.4619C20.1375 36.53 19.125 35.9309 19.125 34.6663C19.125 32.9356 20.475 32.7359 26.8875 33.4681ZM9.9 34.9991C13.95 36.1972 14.0625 36.3303 13.725 39.5919L13.275 42.92L8.325 41.9216L3.375 40.9231V37.3288C3.375 35.2653 3.825 33.7344 4.5 33.7344C5.175 33.7344 7.5375 34.3335 9.9 34.9991ZM43.65 35.0656L48.375 36.3303V40.1244C48.375 42.8534 48.0375 43.7853 47.025 43.5191C35.4375 40.79 36.225 41.256 35.775 37.3288C35.325 33.2019 36 33.0022 43.65 35.0656ZM61.9875 35.7313C63.5625 35.7313 64.125 36.1972 64.125 37.3953C64.125 39.3922 64.2375 39.3922 57.9375 37.595C52.0875 35.9309 51.3 34.7328 56.3625 35.3319C58.275 35.5316 60.8625 35.7313 61.9875 35.7313ZM77.4 37.4619C78.075 37.595 78.75 38.7266 78.75 40.0578C78.75 42.5872 77.5125 42.92 72.5625 41.5888C70.425 40.9897 69.75 40.3241 69.75 38.5935C69.75 36.53 69.975 36.3969 72.9 36.7963C74.5875 36.9959 76.6125 37.2622 77.4 37.4619ZM25.3125 39.1925C30.0375 40.5903 30.375 40.8566 30.375 43.2528C30.375 45.6491 30.15 45.8488 27.9 45.4494C26.4375 45.1831 23.9625 44.8503 22.275 44.6506C19.35 44.2513 19.125 43.985 19.125 40.9897C19.125 39.1925 19.35 37.7281 19.6875 37.7281C19.9125 37.7281 22.5 38.3938 25.3125 39.1925ZM64.125 44.3844C64.125 46.2481 63.7875 47.7125 63.3375 47.7125C62.8875 47.7125 60.3 47.18 57.7125 46.5144L52.875 45.3828V41.5222V37.7281L58.5 39.3922C64.125 41.0563 64.125 41.0563 64.125 44.3844ZM90.3375 38.3938C91.9125 38.3938 92.25 39.0594 92.25 42.321V46.3147L87.75 45.1831C83.3625 44.0516 83.25 43.985 83.25 40.79C83.25 37.7947 83.3625 37.595 85.8375 37.9944C87.1875 38.1941 89.2125 38.3938 90.3375 38.3938ZM103.388 40.1244C106.875 40.5238 106.875 40.5903 106.875 44.7838C106.875 49.3766 106.538 49.5097 100.913 48.1785C97.425 47.2466 97.3125 47.18 97.65 43.5191C97.875 41.3891 98.4375 39.725 99 39.725C99.45 39.725 101.475 39.9247 103.388 40.1244ZM116.325 41.0563C119.138 41.6553 119.25 41.9216 119.25 46.9803V52.3053L115.088 51.44L110.813 50.5747L110.475 45.516C110.138 39.9913 110.475 39.725 116.325 41.0563ZM129.713 42.7203L132.863 43.1197L132.638 49.0438C132.413 52.3719 131.85 55.0344 131.4 55.0344C130.838 55.0344 128.813 54.635 126.788 54.1691L123.188 53.2372L123.525 47.5128C123.75 43.5191 124.313 41.855 125.213 42.0547C126 42.1878 128.025 42.4541 129.713 42.7203ZM13.275 47.9122L13.6125 51.6397L8.4375 50.5747L3.375 49.4431V45.9153V42.4541L8.2125 43.3194L12.9375 44.1181L13.275 47.9122ZM45 44.7172C47.3625 45.4494 48.375 46.2481 48.375 47.4463C48.375 49.0438 48.15 49.1103 44.775 48.711C37.0125 47.7125 36 47.2466 36 44.7172C36 42.5206 36.1125 42.4541 38.8125 43.0531C40.3875 43.3859 43.2 44.1847 45 44.7172ZM77.4 47.5794C77.7375 51.3735 77.175 51.6397 71.8875 49.9756C69.6375 49.31 68.625 48.6444 69.075 47.9788C69.4125 47.3797 69.75 45.9153 69.75 44.6506V42.3875L73.4625 43.2528C76.8375 44.0516 77.0625 44.3844 77.4 47.5794ZM140.513 43.7853L144 44.5175V51.1072C144 54.7016 143.663 57.6969 143.213 57.6969C142.763 57.6969 140.738 57.3641 138.713 56.8981L135 56.0994V49.5763C135 45.9819 135.45 43.0531 136.013 43.0531C136.463 43.0531 138.488 43.3859 140.513 43.7853ZM27.5625 47.0469C30.15 47.646 30.375 48.0453 30.375 51.44C30.375 54.1691 30.0375 55.0344 29.025 54.7681C28.2375 54.635 25.65 54.1025 23.4 53.6366C19.125 52.8378 19.125 52.7713 19.125 49.1769C19.125 45.2497 19.2375 45.1831 27.5625 47.0469ZM88.2 46.7141C92.1375 47.7125 92.25 47.8456 92.25 51.0406C92.25 54.7016 92.25 54.7016 86.9625 53.57C83.3625 52.7713 83.25 52.6381 83.25 49.2435C83.25 47.3131 83.475 45.7156 83.7 45.7156C83.925 45.7156 85.95 46.1816 88.2 46.7141ZM364.5 46.0484C364.5 46.9803 346.05 54.8347 338.513 57.0978C328.725 59.96 327.375 60.1597 327.375 58.6953C327.375 58.0297 331.313 56.5653 337.838 54.7681C343.575 53.1706 351.9 50.5081 356.175 48.7775C364.163 45.5825 364.5 45.516 364.5 46.0484ZM58.95 48.3781C62.6625 49.31 64.125 50.0422 64.125 51.0406C64.125 52.6381 64.575 52.6381 58.1625 51.3069C53.775 50.4416 52.875 49.9756 52.875 48.6444C52.875 46.7141 52.5375 46.7141 58.95 48.3781ZM365.625 52.7047V57.6969L361.35 58.9616C357.188 60.2263 330.413 65.6844 328.388 65.6844C327.825 65.6844 327.375 64.8191 327.375 63.7541C327.375 61.9569 328.275 61.5575 338.963 58.4291C345.263 56.5653 353.7 53.4369 357.75 51.44C361.8 49.4431 365.175 47.7791 365.4 47.7791C365.513 47.7125 365.625 49.9756 365.625 52.7047ZM47.3625 54.4353C47.25 56.4322 46.9125 58.0963 46.8 58.1628C46.575 58.296 44.1 57.8966 41.2875 57.2975L36 56.2325V52.3719V48.4447L41.9625 49.6428L47.8125 50.841L47.3625 54.4353ZM104.4 50.4416C106.763 50.9741 106.988 51.3069 106.2 54.1691C105.863 55.9663 105.3 57.4306 105.188 57.5638C105.075 57.6303 103.163 57.2309 100.913 56.6984C96.8625 55.7 96.75 55.5669 96.75 52.3053C96.75 48.6444 96.525 48.711 104.4 50.4416ZM11.025 52.4385C13.1625 52.9044 13.5 53.5034 13.5 56.3656C13.5 59.6272 13.3875 59.6938 10.2375 59.6938C4.05 59.6938 3.375 59.2278 3.375 54.9013C3.375 50.5747 3.0375 50.7078 11.025 52.4385ZM73.6875 51.9725C75.825 52.505 77.625 53.4369 77.625 53.9694C77.625 54.8347 77.0625 54.8347 73.4625 54.1025C71.1 53.6366 69.075 52.7713 68.85 52.1722C68.4 50.7744 68.7375 50.7744 73.6875 51.9725ZM63.9 53.7031C64.0125 53.7031 64.125 55.5003 64.125 57.7635C64.125 61.7572 64.125 61.8238 61.3125 61.4244C53.1 60.2263 52.875 60.0266 52.875 55.7666V51.7728L58.275 52.7047C61.2 53.2372 63.675 53.7031 63.9 53.7031ZM119.25 57.1644C119.25 60.6922 119.25 60.6922 113.963 59.5606C110.363 58.7619 110.25 58.6288 110.25 55.3006V51.8394L114.75 52.8378C119.138 53.9028 119.25 53.9694 119.25 57.1644ZM26.2125 55.7666C29.7 56.4988 30.375 56.9647 30.375 58.5622C30.375 60.3594 30.2625 60.4259 25.0875 60.2263L19.6875 60.0266L19.35 57.0978C19.125 54.9013 19.35 54.3022 20.475 54.5019C21.2625 54.7016 23.85 55.2341 26.2125 55.7666ZM88.2 55.3672C90.45 55.8997 92.25 56.6319 92.25 57.0313C92.25 57.83 84.0375 56.0994 83.475 55.1675C82.9125 54.1691 83.25 54.1691 88.2 55.3672ZM74.1375 55.7666C77.4 56.4322 77.625 56.6984 77.625 59.8269V63.0884L73.4625 62.8888L69.1875 62.6891L68.85 58.8285C68.5125 54.7681 68.625 54.635 74.1375 55.7666ZM127.913 55.8331C131.4 56.5653 131.625 56.8316 131.625 59.8269C131.625 63.2881 131.4 63.3547 126.113 62.2897C122.85 61.6241 122.625 61.3578 122.625 58.296C122.625 54.7016 122.625 54.7016 127.913 55.8331ZM227.25 56.765C227.25 58.2294 226.8 58.4291 224.213 58.2294C221.963 58.0963 220.95 57.6303 220.725 56.4988C220.388 55.2341 220.838 55.0344 223.763 55.0344C226.8 55.0344 227.25 55.3006 227.25 56.765ZM236.025 57.83C236.363 59.4275 236.025 59.6938 233.55 59.6938C230.175 59.6938 229.388 59.0947 230.288 57.0978C231.188 54.9013 235.575 55.4338 236.025 57.83ZM244.125 59.4275C244.125 62.09 240.3 61.2247 239.85 58.4956C239.513 56.4322 239.625 56.2991 241.763 57.0313C243.225 57.4306 244.125 58.4291 244.125 59.4275ZM252.9 60.2928C253.238 62.2231 253.013 62.4228 250.65 62.2231C248.513 62.09 247.95 61.5575 247.725 59.5606C247.388 57.1644 247.5 57.0978 249.975 57.6303C251.775 58.0297 252.675 58.7619 252.9 60.2928ZM47.25 60.5591C47.25 60.8919 46.4625 60.9585 45.45 60.7588C44.4375 60.5591 41.9625 60.3594 39.825 60.3594C36.7875 60.3594 36 60.0931 36 59.0947C36 57.8966 36.225 57.83 41.625 58.895C44.775 59.4941 47.25 60.2263 47.25 60.5591ZM88.7625 58.4291C91.9125 59.0947 92.25 59.4275 92.25 61.7572C92.25 64.5528 92.1375 64.5528 86.7375 63.9538C83.475 63.5544 83.25 63.3547 83.25 60.6256C83.25 57.4306 83.475 57.3641 88.7625 58.4291ZM102.938 58.6953C104.85 59.1613 105.525 59.6272 104.625 59.6272C103.725 59.6272 101.475 59.2278 99.5625 58.6953C97.7625 58.2294 96.975 57.7635 97.875 57.7635C98.775 57.7635 101.138 58.1628 102.938 58.6953ZM139.95 58.6953C143.775 59.6272 144 59.8934 144 62.6891C144 65.9506 143.775 66.0172 138.488 64.9522C135.225 64.2866 135 64.0203 135 60.9585C135 59.1613 135.225 57.6969 135.45 57.6969C135.675 57.6969 137.7 58.1628 139.95 58.6953ZM258.975 58.6953C259.988 58.9616 260.325 59.8934 260.1 61.6241C259.763 63.7541 259.313 64.1535 257.513 63.8872C255.825 63.6209 255.375 62.9553 255.375 60.9585C255.375 58.4291 255.938 58.0297 258.975 58.6953ZM265.95 60.0931C267.188 60.3594 267.75 61.3578 267.75 63.4213C267.75 66.2169 267.638 66.35 265.5 65.6844C263.813 65.1519 263.25 64.2866 263.25 62.3563C263.25 59.4941 263.25 59.4941 265.95 60.0931ZM365.625 60.9585C365.625 61.8238 363.375 62.7556 357.525 64.3531C349.988 66.2835 332.438 70.3438 331.2 70.3438C330.975 70.3438 330.75 69.7447 330.75 69.0125C330.75 68.2138 329.963 67.6813 328.838 67.6147C327.713 67.6147 331.425 66.7494 336.938 65.751C342.563 64.686 350.888 62.9553 355.5 61.8238C365.85 59.361 365.625 59.4275 365.625 60.9585ZM102.263 60.7588C105.188 61.1581 105.75 61.491 105.75 63.0884C105.75 65.1519 105.525 65.2185 100.238 64.6194C97.3125 64.22 96.75 63.8872 96.75 62.2897C96.75 60.2263 96.975 60.1597 102.263 60.7588ZM226.238 61.025C226.8 61.025 227.25 62.7556 227.25 64.8856C227.25 68.1472 226.8 69.0125 224.438 70.3438L221.625 71.8747V66.0838C221.625 61.025 221.85 60.2928 223.425 60.6256C224.438 60.8253 225.675 61.025 226.238 61.025ZM996.75 68.0141C996.75 74.4041 996.413 75.6688 995.063 75.6688C993.713 75.6688 993.375 74.4041 993.375 68.0141C993.375 61.6241 993.713 60.3594 995.063 60.3594C996.413 60.3594 996.75 61.6241 996.75 68.0141ZM234.45 61.4244C235.8 61.7572 236.25 62.8222 236.25 66.0838V70.3438H232.875H229.5V65.6844C229.5 60.8919 230.063 60.4259 234.45 61.4244ZM402.75 64.8191V68.6797L398.813 65.2185C396.675 63.2881 394.875 61.5575 394.875 61.3578C394.875 61.1581 396.675 61.025 398.813 61.025H402.75V64.8191ZM115.088 63.0884C118.013 63.5544 119.25 64.0869 119.25 65.0188C119.25 66.0838 118.688 66.2835 115.65 65.9506C109.688 65.3516 109.125 65.1519 109.125 63.6875C109.125 62.1566 109.35 62.1566 115.088 63.0884ZM244.125 67.0156C244.125 70.1441 243.9 70.3438 241.313 70.3438C238.613 70.3438 238.5 70.1441 238.5 66.8159C238.5 62.7556 239.063 62.1566 241.988 63.0884C243.675 63.5544 244.125 64.4863 244.125 67.0156ZM397.575 66.6163C403.875 71.8747 404.1 73.0063 398.813 73.0063C395.325 73.0063 394.875 73.2059 394.875 74.6703C394.875 75.6022 394.425 76.3344 393.75 76.3344C393.188 76.3344 392.625 77.0666 392.625 77.9985C392.625 79.4628 392.175 79.6625 388.688 79.6625H384.75V73.7384C384.75 70.4769 385.2 67.0156 385.763 66.1503C386.888 64.4197 390.038 62.3563 391.5 62.3563C391.95 62.3563 394.763 64.2866 397.575 66.6163ZM365.288 78.1316C364.05 78.8638 361.125 77.3328 361.125 75.935C361.125 74.8035 360.45 74.3375 358.875 74.3375C357.188 74.3375 356.625 73.8716 356.625 72.74C356.625 71.2091 356.175 71.076 350.775 70.8763C347.625 70.7431 344.813 70.3438 344.588 70.0109C344.363 69.6116 348.975 68.1472 354.6 66.6828L365.063 64.0203L365.4 70.9428C365.513 74.7369 365.513 77.9319 365.288 78.1316ZM128.925 65.4181C133.2 66.0838 132.075 67.0156 127.125 67.0156C123.3 67.0156 122.625 66.8159 122.625 65.6178C122.625 64.6194 123.075 64.3531 124.425 64.6194C125.438 64.8191 127.463 65.2185 128.925 65.4181ZM252 66.6163C252 68.5466 249.75 71.0094 247.95 71.0094C247.725 71.0094 247.5 69.4785 247.5 67.6813C247.5 64.8191 247.838 64.3531 249.75 64.3531C251.55 64.3531 252 64.8191 252 66.6163ZM141.638 67.415C141.863 67.5481 140.85 67.6813 139.163 67.6813C137.588 67.6813 135.9 67.3484 135.563 67.0156C134.888 66.35 140.288 66.7494 141.638 67.415ZM80.4375 73.6719C109.35 75.6688 106.875 75.1363 106.875 78.9969V82.325H99C91.6875 82.325 91.125 82.1919 91.125 80.9272C91.125 79.4628 91.0125 79.4628 74.25 79.9288L57.375 80.3947V76.401C57.375 73.0063 57.7125 72.3406 59.4 72.3406C60.4125 72.3406 69.975 72.9397 80.4375 73.6719Z" fill="#D3D3D3"/>
</svg>
